Patient4_TMGait_0pt4_02_right_37_EMG.mot
version=1
nRows=13
nColumns=33
inDegrees=no
endheader
time	1LAddLong	2LGlutMax	3LGlutMed	4LIliopsoas	5LSemiMemb	6LBicFemLong	7LRecFem	8LVastMed	9LVastLat	10LGasMed	11LTibAnt	12lTibPost	13LPeroneusLong	14LSol	15LExtDigLong	16LFlexDigLong	17RAddLong	18RGlutMax	19RGlutMed	20RIliopsoas	21RSemiMemb	22RBicFemLong	23RRecFem	24RVastMed	25RVastLat	26RGasMed	27RTibAnt	28RTibPost	29RPeroneusLong	30RSol	31RExtDigLong	32RFlexDigLong
48.84	-0.004578	0.055542	-0.065308	0.013885	0.053253	0.074005	-0.019989	0.011749	-0.02594	-0.012512	-0.15976	0.014801	0.13016	0.067139	-0.021667	0.002136	-0.044556	0.094299	0.022125	-0.2948	0.1561	-0.048981	0.087433	-0.078583	0.025787	-0.002747	-0.69382	-0.007782	0.11276	-0.040588	-0.00061	-0.003357
48.841	-0.011139	0.070648	-0.030212	0.016785	0.020447	0.084686	-0.021515	-0.007019	-0.01236	-0.001221	-0.26993	0.020905	0.15717	0.094147	-0.12405	-0.003967	-0.039063	0.10056	0.00412	-0.36087	0.18265	-0.073242	0.077972	-0.031281	0.010834	-0.005035	-0.47928	-0.002899	-0.050812	-0.033264	-0.000305	-0.012817
48.842	-0.006256	0.045471	-0.1152	0.016174	0.047913	0.06958	-0.020599	0.002899	-0.0354	-0.015564	-0.23972	0.010986	0.10117	0.024109	-0.11139	0.001678	-0.02533	0.079651	-0.11597	-0.16052	0.19608	-0.068512	0.12619	-0.010071	-0.004272	-0.011444	0.019379	-0.001068	-0.053711	-0.03418	0.005951	-0.016632
48.843	-0.002594	0.031891	-0.26718	0.030365	0.029297	0.056152	-0.041046	0.006409	-0.053406	-0.027618	-0.12665	0.005646	0.087433	0.005646	-0.26169	0.016479	-0.012817	0.097198	0.002899	-0.006866	0.18051	-0.066071	0.085907	-0.038757	0.013123	-0.011139	0.34821	-0.002899	0.099335	-0.014496	-0.002441	-0.015259
48.844	-0.005646	0.018005	-0.15976	0.012817	0.014801	0.033417	-0.010986	0.001831	-0.036774	-0.024261	-0.045013	0.019226	0.14771	-0.053101	-0.16525	0.009003	-0.00061	0.093842	-0.23666	0.10025	0.15152	-0.053558	0.076599	-0.01358	0.013428	-0.008545	0.24765	-0.006561	0.20584	-0.078735	-0.001373	-0.011902
48.845	-0.01297	-0.021362	-0.099335	0.015106	-0.010376	-0.04715	0.011444	0.004883	-0.048523	0.014191	-0.013123	0.010529	-0.085144	-0.11261	0.075836	0.001984	-0.006561	0.054321	-0.21164	0.27954	0.13916	-0.017853	0.057678	-0.053558	0.018616	-0.003815	0.54275	-0.000153	-0.23789	-0.14069	-0.002747	-0.011902
48.846	-0.000458	0.047607	-0.050049	0.016174	0.03067	-0.078125	-0.038452	0.010986	-0.021057	0.024719	0.12772	0.015259	0.018005	-0.10605	0.15457	0.008392	0.005646	0.13412	0.14954	0.33478	0.13809	-0.029449	0.082397	-0.001068	0.008392	-0.007172	0.45639	-0.002136	-0.27313	-0.16007	-0.001068	-0.019073
48.847	-0.003204	0.06012	0.11429	-0.019836	0.007629	-0.029449	-0.055389	0.006409	0.018616	-0.002289	0.13534	0.014954	0.066986	-0.018616	0.089417	-0.004578	0.016174	0.11993	0.35004	0.086365	0.13687	-0.028381	0.079498	-0.037842	0.017853	-0.007477	0.17944	-0.001678	-0.031738	-0.086517	-0.003052	-0.013428
48.848	0.002747	0.047455	0.14313	-0.004883	-0.040436	0.008087	-0.024261	0.000763	0.056	0.007172	0.037842	0.019226	-0.084839	0.092468	-0.011292	-0.006409	0.021973	0.13748	0.084381	0.058289	0.13733	-0.024109	0.093994	-0.046082	0.00473	-0.007324	-0.037842	-0.009918	0.029602	-0.010223	-0.001526	-0.013123
48.849	0.000305	0.018768	0.066071	0.024109	-0.062866	0.04425	-0.02243	-0.011292	0.035706	0	-0.002594	0.014038	-0.17441	0.037842	-0.066528	-0.015869	0.023346	0.084991	-0.12787	0.068665	0.12177	-0.054626	0.065002	-0.012207	0.00885	-0.002594	-0.33798	-0.000458	0.056458	0.04715	0.001068	-0.013123
48.85	0.009918	-0.001221	0.028839	-0.003204	0.009003	0.057983	-0.013733	-0.003662	0.018616	-0.000916	-0.05661	0.007324	-0.035248	0.020905	-0.018005	-0.001068	0.006409	0.054626	-0.09964	0.056	0.09903	-0.053864	0.066528	-0.018311	0.009766	-0.007172	-0.38757	-0.001678	0.072174	0.076447	0.000763	-0.011444
48.851	-0.004883	0.003052	0.020142	0.01236	0.079651	0.050354	-0.009155	-0.000763	0.025482	0.04837	-0.0383	0.008545	0.057526	-0.11017	-0.011139	0.001678	0.005798	0.063934	-0.034943	-0.001831	0.094299	-0.062561	0.0354	-0.035248	-0.002747	-0.010834	-0.25497	-0.005646	0.14908	0.12375	-0.001068	-0.006561
48.852	-0.010071	-0.026093	0.1355	0.018463	0.050812	0.032806	0.01709	-0.002594	0.016174	0.050201	-0.000305	0.010681	0.0354	-0.08255	0.056458	-0.007019	0.032043	0.12222	0.20142	-0.029449	0.08255	-0.045624	0.053406	-0.054932	0.009308	-0.007172	-0.11673	-0.006561	0.39978	0.12619	-0.004425	-0.006256
